<svg xmlns="http://www.w3.org/2000/svg" viewBox="0 0 631 137.25"><defs><style>.cls-1{fill:#02bbea;}</style></defs><g id="social_Icons_slide" data-name="social Icons slide"><path class="cls-1" d="M136.91,68.67a66.86,66.86,0,1,0-66.85,66.86A66.84,66.84,0,0,0,136.91,68.67ZM70.06,16.73a52.25,52.25,0,0,1,13.19,1.69L75.1,37.61c-13.45-5-26.55-7.86-37.46-8.1H36A51.65,51.65,0,0,1,70.06,16.73Zm0,103.88a51.56,51.56,0,0,1-13.28-1.7l6-14.14q-3.45-1.27-6.92-2.75c-2.32-1-4.59-2-6.8-3.07l-6,14.12a52.09,52.09,0,0,1-24.89-41.7l1.18,1.21C28.45,81.58,42.17,90.24,58,97s31.61,10.59,44.4,10.87h1.77A51.47,51.47,0,0,1,70.06,120.61Zm17.67-61c9.15,4.84,16.9,10.27,22.46,15.78,6.39,6.34,8.36,11.47,7.48,13.54s-5.94,4.22-14.94,4C91.79,92.68,78,89.25,63.84,83.24S37.63,69.7,29.86,62c-6.39-6.35-8.35-11.47-7.47-13.54s5.92-4.22,14.93-4,20.28,2.64,31.95,6.93L59.17,75.14a.64.64,0,0,0-.08.14h0c2.2,1.06,4.47,2.1,6.79,3.09s4.64,1.89,6.94,2.74L83,57.17h0l5.83-13.74h0L97,24.24a52.33,52.33,0,0,1,9.81,7.7A51.58,51.58,0,0,1,121.93,66c-.4-.42-.81-.83-1.24-1.27-6.79-6.73-16.18-13.27-27.12-19Z"/><path d="M225.67,51.22V41.75h15.57v65.39H225.67V97.67c-2.21,6.36-10.12,10.9-20.89,10.9a31.49,31.49,0,0,1-23.36-9.73c-6.22-6.62-9.34-14.66-9.34-24.4s3.12-17.77,9.34-24.26a31.12,31.12,0,0,1,23.36-9.86C215.55,40.32,223.46,44.86,225.67,51.22ZM221,88.72a19.11,19.11,0,0,0,5.84-14.28A19.1,19.1,0,0,0,221,60.17a19.41,19.41,0,0,0-14.14-5.71A18.83,18.83,0,0,0,193,60.17a19.82,19.82,0,0,0-5.45,14.27A19.83,19.83,0,0,0,193,88.72a18.83,18.83,0,0,0,13.89,5.71A19.41,19.41,0,0,0,221,88.72Z"/><path d="M257.33,107.14V16.71H272.9v90.43Z"/><path d="M289.24,107.14V16.71h15.57v90.43Z"/><path d="M322.2,107.14V16.71h6.49V54.33q5.25-13.62,22.18-13.62c7.4,0,13.24,2.34,17.78,7.14s6.74,11,6.74,18.94v40.35h-6.48v-39c0-13-7.66-21.28-19.46-21.28-12.59,0-20.76,10-20.76,25.17v35.16Z"/><path d="M390.7,74.44c0-9.73,3.25-17.9,9.86-24.52s14.8-9.86,24.53-9.86,17.77,3.25,24.39,9.86a33.36,33.36,0,0,1,10,24.52,33.37,33.37,0,0,1-10,24.53c-6.62,6.61-14.66,9.86-24.39,9.86s-17.91-3.25-24.53-9.86S390.7,84.18,390.7,74.44Zm6.49,0c0,8,2.6,14.8,7.92,20.25a27.32,27.32,0,0,0,20,8,27,27,0,0,0,19.85-8,27.9,27.9,0,0,0,8-20.25,27.39,27.39,0,0,0-8-20.11,26.62,26.62,0,0,0-19.85-8.17,26.89,26.89,0,0,0-20,8.17C399.79,59.65,397.19,66.4,397.19,74.44Z"/><path d="M474.13,41.75h6.49v40c0,13.49,7.65,20.76,20.5,20.76s20.5-7.27,20.5-20.76v-40h6.48V82.36c0,16.74-10.51,26.21-27,26.21s-27-9.47-27-26.21Z"/><path d="M545.75,107.14V41.75h6.49v13.1c3.24-9.47,10.64-14.14,22.18-14.14a19.36,19.36,0,0,1,3.12.13v6.75a33.59,33.59,0,0,0-4.16-.26c-6.87,0-12.06,2.33-15.69,6.87s-5.45,10.25-5.45,17.13v35.81Z"/><path d="M585.32,92.09c5.32,6.88,12.72,10.38,22.06,10.38,9.86,0,15.57-4.41,15.57-11.55,0-4-1-6.74-4.8-9.47a26.27,26.27,0,0,0-4.8-3.24c-1.3-.78-3.64-2.08-7.14-3.77C594.14,68.35,589.08,64.19,589.08,56c0-9.73,7.4-16,18.95-16,5.84,0,10.64,1.56,14.4,4.54v6.88a19.74,19.74,0,0,0-13.88-5.32c-8.31,0-13,3.63-13,9.86,0,4.8,3,7.4,10.77,11.42L611,69.9c2.34,1.17,3.89,2.08,4.54,2.47a28.94,28.94,0,0,1,3.76,2.2A18.58,18.58,0,0,1,623,77c1.17,1.17,4.15,3.76,4.8,5.84a20.46,20.46,0,0,1,1.69,8c0,4.54-1.82,8.57-5.58,12.2s-9.09,5.45-16.48,5.45c-9.73,0-17-2.86-22.06-8.69Z"/></g></svg>